<svg width="237" height="180" viewBox="0 0 237 180" fill="none" xmlns="http://www.w3.org/2000/svg">
<g clip-path="url(#clip0)">
<path d="M114.923 177.689L4.60522 112.513C1.09322 110.539 -1.91778 107.304 1.50522 105.182L112.215 41.393C113.875 40.363 116.396 39.688 118.088 40.673L233.874 107.863C237.386 109.901 238.016 115.58 234.517 117.637L129.461 177.587C127.256 178.866 124.755 179.548 122.206 179.566C119.656 179.583 117.146 178.937 114.923 177.689V177.689Z" fill="#5B36A0"/>
<path d="M114.923 174.681L4.60522 109.503C1.09322 107.528 -1.91778 104.293 1.50522 102.171L112.215 38.3828C113.875 37.3538 116.396 36.6788 118.088 37.6628L233.874 104.853C237.386 106.892 238.016 112.57 234.517 114.628L129.461 174.577C127.256 175.856 124.755 176.538 122.206 176.556C119.657 176.574 117.147 175.927 114.923 174.68V174.681Z" fill="#6862E6"/>
<path style="mix-blend-mode:multiply" opacity="0.25" d="M124.019 88.6868L102.251 101.105C102.251 101.105 135.784 121.562 142.641 124.443L155.178 106.436" fill="url(#paint0_linear)"/>
<path style="mix-blend-mode:multiply" opacity="0.25" d="M116.499 148.263L94.7252 135.87L72.9512 148.288C72.9512 148.288 84.2912 155.208 95.1312 161.562C102.013 156.694 108.902 151.774 116.499 148.262V148.263Z" fill="url(#paint1_linear)"/>
<path style="mix-blend-mode:multiply" opacity="0.46" d="M69.5874 71.7349L55.7764 79.6129C55.7764 79.6129 56.9464 86.8349 63.8044 89.7159L81.8864 78.1399" fill="url(#paint2_linear)"/>
<path d="M76.3476 79.6128C80.9481 79.6128 84.6776 76.987 84.6776 73.7478C84.6776 70.5087 80.9481 67.8828 76.3476 67.8828C71.747 67.8828 68.0176 70.5087 68.0176 73.7478C68.0176 76.987 71.747 79.6128 76.3476 79.6128Z" fill="#68E1FD"/>
<path d="M76.3416 72.8409C79.7878 72.8409 82.5816 71.6978 82.5816 70.2879C82.5816 68.8779 79.7878 67.7349 76.3416 67.7349C72.8953 67.7349 70.1016 68.8779 70.1016 70.2879C70.1016 71.6978 72.8953 72.8409 76.3416 72.8409Z" fill="#974C26"/>
<path d="M76.116 66.0309C76.116 64.8799 76.077 63.7279 75.987 62.5769C75.961 62.2769 75.933 61.9789 75.903 61.6829L75.839 61.0979C75.839 60.9249 75.749 60.4549 75.749 60.4999C75.71 60.2639 75.669 60.0299 75.627 59.7999C74.9465 55.8918 73.428 52.1774 71.176 48.9119C70.3284 50.9283 69.9056 53.0978 69.934 55.2849C69.934 55.9279 69.985 56.5709 70.037 57.1749V57.5549C70.2904 59.0467 70.678 60.5127 71.195 61.9349C71.5635 62.9715 72.0129 63.9776 72.539 64.9439C73.1067 66.0317 73.7227 67.0938 74.385 68.1269C74.9 68.9369 75.389 69.6569 75.885 70.3459C76.039 68.9119 76.109 67.4709 76.115 66.0309H76.116ZM72.842 53.0849C72.875 52.9367 72.875 52.783 72.842 52.6349C73 52.7979 73.157 52.9649 73.312 53.1369C73.157 53.0928 72.9958 53.0752 72.835 53.0849H72.842Z" fill="#999A1C"/>
<path d="M78.2582 66.9179C78.9012 65.9479 79.4682 64.9879 80.0142 63.9409C80.1552 63.6749 80.2932 63.4089 80.4262 63.1429L80.6892 62.6089L80.9402 62.0559L81.2172 61.4129C82.7589 57.7546 83.4896 53.8057 83.3592 49.8379C81.5511 51.0759 80.0181 52.674 78.8562 54.5319C78.5227 55.0679 78.2115 55.6173 77.9232 56.1789L77.7952 56.4159L77.7622 56.5189C77.6402 56.8089 77.5182 57.0989 77.4022 57.3939C76.9756 58.5144 76.6297 59.664 76.3672 60.8339C76.1166 61.9062 75.9508 62.9966 75.8712 64.0949C75.7576 65.3156 75.7019 66.5409 75.7042 67.7669C75.7042 68.7249 75.7042 69.5999 75.7622 70.4419C76.6172 69.3039 77.4792 68.1339 78.2582 66.9179V66.9179ZM82.5032 54.2559C82.6042 54.1429 82.6792 54.0089 82.7222 53.8629C82.7692 54.0859 82.8102 54.3009 82.8442 54.5069C82.7442 54.4069 82.6292 54.3219 82.5042 54.2559H82.5032Z" fill="#999A1C"/>
<path d="M78.213 69.7859C78.86 69.4649 79.503 69.1179 80.143 68.7449L80.625 68.4489L80.94 68.2489L81.249 68.0309L81.609 67.7669C83.6199 66.2912 85.2878 64.3979 86.498 62.2169C85.1249 62.305 83.7847 62.675 82.561 63.3039C82.207 63.4839 81.866 63.6839 81.525 63.8889L81.378 63.9789L81.326 64.0239L80.85 64.3779C80.257 64.8449 79.698 65.3549 79.178 65.9019C78.697 66.3999 78.256 66.9359 77.858 67.5029C77.4116 68.1342 76.9827 68.7778 76.572 69.4329C76.264 69.9469 75.987 70.4289 75.742 70.8989C76.572 70.5519 77.402 70.1909 78.212 69.7859H78.213ZM84.593 64.3199C84.6841 64.2916 84.7678 64.2435 84.838 64.1789C84.7911 64.3155 84.7397 64.4506 84.684 64.5839C84.6672 64.4941 84.6368 64.4075 84.594 64.3269V64.3199H84.593ZM76.116 66.0309C76.116 64.8799 76.077 63.7279 75.987 62.5769C75.961 62.2769 75.933 61.9789 75.903 61.6829L75.839 61.0979C75.839 60.9249 75.749 60.4549 75.749 60.4999C75.71 60.2639 75.669 60.0299 75.627 59.7999C74.9465 55.8918 73.428 52.1774 71.176 48.9119C70.3284 50.9283 69.9056 53.0978 69.934 55.2849C69.934 55.9279 69.985 56.5709 70.037 57.1749V57.5549C70.2904 59.0467 70.678 60.5127 71.195 61.9349C71.5635 62.9715 72.0129 63.9776 72.539 64.9439C73.1067 66.0317 73.7227 67.0938 74.385 68.1269C74.9 68.9369 75.389 69.6569 75.885 70.3459C76.039 68.9119 76.109 67.4709 76.115 66.0309H76.116ZM72.842 53.0849C72.875 52.9367 72.875 52.783 72.842 52.6349C73 52.7979 73.157 52.9649 73.312 53.1369C73.157 53.0928 72.9958 53.0752 72.835 53.0849H72.842Z" fill="#999A1C"/>
<path d="M78.2582 66.9179C78.9012 65.9479 79.4682 64.9879 80.0142 63.9409C80.1552 63.6749 80.2932 63.4089 80.4262 63.1429L80.6892 62.6089L80.9402 62.0559L81.2172 61.4129C82.7589 57.7546 83.4896 53.8057 83.3592 49.8379C81.5511 51.0759 80.0181 52.674 78.8562 54.5319C78.5227 55.0679 78.2115 55.6173 77.9232 56.1789L77.7952 56.4159L77.7622 56.5189C77.6402 56.8089 77.5182 57.0989 77.4022 57.3939C76.9756 58.5144 76.6297 59.664 76.3672 60.8339C76.1166 61.9062 75.9508 62.9966 75.8712 64.0949C75.7576 65.3156 75.7019 66.5409 75.7042 67.7669C75.7042 68.7249 75.7042 69.5999 75.7622 70.4419C76.6172 69.3039 77.4792 68.1339 78.2582 66.9179V66.9179ZM82.5032 54.2559C82.6042 54.1429 82.6792 54.0089 82.7222 53.8629C82.7692 54.0859 82.8102 54.3009 82.8442 54.5069C82.7442 54.4069 82.6292 54.3219 82.5042 54.2559H82.5032Z" fill="#999A1C"/>
<path d="M78.2132 69.7858C78.8602 69.4648 79.5032 69.1178 80.1432 68.7448L80.6252 68.4488L80.9402 68.2488L81.2492 68.0308L81.6092 67.7668C83.6201 66.2912 85.288 64.3978 86.4982 62.2168C85.1251 62.3049 83.7849 62.6749 82.5612 63.3038C82.2072 63.4838 81.8662 63.6838 81.5252 63.8888L81.3782 63.9788L81.3262 64.0238L80.8502 64.3778C80.2572 64.8448 79.6982 65.3548 79.1782 65.9018C78.6972 66.3998 78.2562 66.9358 77.8582 67.5028C77.4118 68.1341 76.9829 68.7777 76.5722 69.4328C76.2642 69.9468 75.9872 70.4288 75.7422 70.8988C76.5722 70.5518 77.4022 70.1908 78.2122 69.7858H78.2132ZM84.5932 64.3198C84.6843 64.2915 84.768 64.2434 84.8382 64.1788C84.7913 64.3155 84.74 64.4505 84.6842 64.5838C84.6674 64.4941 84.637 64.4074 84.5942 64.3268V64.3198H84.5932Z" fill="#999A1C"/>
<path d="M132.665 83.8379L120.617 89.6259C120.163 89.8441 119.777 90.1818 119.501 90.6026C119.224 91.0235 119.068 91.5117 119.048 92.0148C119.028 92.5179 119.146 93.017 119.388 93.4583C119.63 93.8996 119.988 94.2666 120.424 94.5199L148.978 111.176C149.595 111.537 150.327 111.645 151.023 111.478C151.718 111.312 152.322 110.883 152.709 110.282L159.649 99.4909" fill="#A1482D"/>
<path d="M198.193 55.9209L102.123 0.576882C101.464 0.19802 100.717 -0.000922181 99.9567 3.21371e-06C99.1965 0.000928608 98.4499 0.201689 97.7918 0.582154C97.1337 0.96262 96.5872 1.50942 96.2071 2.16772C95.8269 2.82603 95.6265 3.5727 95.626 4.33288V61.9079C95.626 63.1949 96.312 64.3839 97.426 65.0279L199.846 124.134C200.199 124.338 200.6 124.446 201.008 124.446C201.416 124.446 201.817 124.339 202.171 124.135C202.524 123.931 202.817 123.637 203.021 123.283C203.225 122.93 203.332 122.529 203.332 122.121V64.7829C203.33 62.9842 202.854 61.2177 201.952 59.6617C201.049 58.1058 199.753 56.8154 198.192 55.9209H198.193Z" fill="#F47B56"/>
<path d="M102.129 4.93086L195.298 58.5189C196.293 59.0915 197.12 59.9161 197.695 60.9098C198.269 61.9034 198.572 63.031 198.572 64.1789V107.336C198.572 107.749 198.463 108.155 198.256 108.512C198.05 108.87 197.753 109.167 197.395 109.374C197.038 109.581 196.632 109.691 196.219 109.692C195.806 109.693 195.4 109.586 195.041 109.381L100.025 54.8989C99.6699 54.695 99.3744 54.4008 99.169 54.0461C98.9635 53.6914 98.8554 53.2888 98.8555 52.8789V6.82786C98.8553 6.44454 98.9559 6.06792 99.1472 5.73576C99.3386 5.40361 99.6139 5.1276 99.9455 4.93543C100.277 4.74326 100.654 4.64168 101.037 4.64087C101.42 4.64007 101.797 4.74008 102.129 4.93086V4.93086Z" fill="white"/>
<path d="M141.331 86.333C142.43 86.1215 143.124 84.9322 142.882 83.6767C142.641 82.4212 141.554 81.575 140.455 81.7866C139.357 81.9982 138.662 83.1874 138.904 84.4429C139.145 85.6984 140.232 86.5446 141.331 86.333Z" fill="#AB643C"/>
<path opacity="0.32" d="M127.171 63.4838L170.468 89.4908L191.857 77.0598L153.641 54.8218" fill="url(#paint3_linear)"/>
<path d="M180.678 58.3069L133.868 29.7729C133.617 29.6281 133.332 29.553 133.043 29.5555C132.753 29.5579 132.47 29.6378 132.222 29.7868C131.974 29.9358 131.77 30.1485 131.632 30.4027C131.494 30.657 131.426 30.9437 131.437 31.2329V47.4899C131.434 47.7841 131.509 48.0739 131.652 48.331C131.795 48.5881 132.002 48.8037 132.254 48.9569L179.057 76.8869C179.303 77.0265 179.581 77.099 179.864 77.0972C180.147 77.0954 180.424 77.0193 180.669 76.8765C180.913 76.7337 181.115 76.5293 181.256 76.2836C181.396 76.038 181.469 75.7598 181.469 75.4769L181.713 60.3199C181.731 59.9232 181.645 59.5287 181.463 59.1756C181.281 58.8225 181.011 58.523 180.678 58.3069V58.3069Z" fill="#E2AC00"/>
<path d="M169.478 66.673C171.157 69.021 174.109 69.677 176.065 68.146C178.02 66.616 178.245 63.471 176.566 61.13C174.887 58.79 171.935 58.127 169.979 59.658C168.024 61.188 167.799 64.327 169.478 66.674V66.673Z" fill="white"/>
<path d="M164.885 55.407L145.793 43.915C145.63 43.84 145.444 43.8284 145.272 43.8824C145.101 43.9364 144.955 44.0523 144.864 44.2075C144.773 44.3627 144.742 44.5462 144.778 44.7225C144.815 44.8988 144.915 45.0554 145.06 45.162L164.152 56.654C164.316 56.7289 164.502 56.7405 164.673 56.6865C164.845 56.6325 164.991 56.5166 165.082 56.3614C165.173 56.2062 165.204 56.0227 165.167 55.8464C165.131 55.6701 165.03 55.5135 164.885 55.407V55.407ZM164.1 60.076L137.785 44.236C137.624 44.1793 137.448 44.1813 137.288 44.2416C137.128 44.3018 136.995 44.4165 136.911 44.5655C136.827 44.7144 136.798 44.8881 136.83 45.0561C136.861 45.2241 136.951 45.3756 137.083 45.484L163.367 61.33C163.531 61.4062 163.718 61.4186 163.89 61.3648C164.063 61.311 164.209 61.1948 164.301 61.0389C164.392 60.8831 164.422 60.6987 164.385 60.5217C164.348 60.3448 164.247 60.188 164.1 60.0819V60.076Z" fill="#F2F2F2"/>
<path d="M171.337 61.4579L124.553 32.9309C124.303 32.7859 124.018 32.7106 123.728 32.7129C123.439 32.7153 123.155 32.7951 122.907 32.9441C122.659 33.0931 122.455 33.3059 122.317 33.5603C122.178 33.8148 122.111 34.1016 122.121 34.3909V50.6409C122.114 51.2409 122.421 51.7999 122.931 52.1139L169.735 80.0439C169.984 80.1867 170.266 80.2607 170.552 80.2585C170.839 80.2563 171.119 80.1779 171.366 80.0313C171.612 79.8847 171.815 79.6753 171.953 79.4244C172.092 79.1736 172.161 78.8904 172.154 78.6039L172.398 63.4449C172.409 63.0501 172.317 62.6594 172.131 62.311C171.945 61.9626 171.671 61.6686 171.337 61.4579Z" fill="#F47B56"/>
<path d="M160.139 69.8248C161.818 72.1718 164.77 72.8278 166.726 71.2978C168.681 69.7678 168.906 66.6218 167.227 64.2808C165.548 61.9408 162.596 61.2778 160.64 62.8088C158.685 64.3388 158.46 67.4778 160.139 69.8248Z" fill="white"/>
<path d="M155.546 58.5578L136.44 47.0658C136.276 46.9896 136.089 46.9772 135.917 47.031C135.744 47.0848 135.598 47.201 135.506 47.3569C135.415 47.5127 135.385 47.6971 135.422 47.8741C135.459 48.051 135.56 48.2078 135.707 48.3138L154.799 59.8058C154.963 59.8821 155.149 59.8945 155.322 59.8407C155.494 59.7869 155.641 59.6707 155.732 59.5148C155.824 59.359 155.854 59.1746 155.817 58.9976C155.78 58.8207 155.678 58.6639 155.532 58.5578H155.545H155.546ZM154.755 63.2588L128.445 47.3938C128.281 47.3176 128.094 47.3052 127.922 47.359C127.749 47.4128 127.603 47.529 127.511 47.6849C127.42 47.8407 127.39 48.0251 127.427 48.2021C127.464 48.379 127.565 48.5358 127.712 48.6418L154.028 64.4808C154.192 64.5571 154.378 64.5695 154.551 64.5157C154.723 64.4619 154.87 64.3457 154.961 64.1898C155.053 64.034 155.083 63.8496 155.046 63.6726C155.009 63.4957 154.907 63.3389 154.761 63.2328L154.755 63.2588Z" fill="#F2F2F2"/>
<path d="M159.597 63.3749L112.801 34.8469C112.551 34.7019 112.266 34.6266 111.976 34.629C111.687 34.6313 111.403 34.7111 111.155 34.8601C110.907 35.0091 110.703 35.2219 110.565 35.4764C110.426 35.7308 110.359 36.0176 110.369 36.3069V52.5579C110.367 52.852 110.442 53.1416 110.585 53.3985C110.728 53.6554 110.935 53.8709 111.186 54.0239L157.989 81.9539C158.238 82.0967 158.52 82.1708 158.806 82.1685C159.093 82.1663 159.374 82.0879 159.62 81.9413C159.866 81.7947 160.069 81.5853 160.207 81.3344C160.346 81.0836 160.415 80.8004 160.408 80.5139L160.652 65.3549C160.673 64.5549 160.272 63.8039 159.597 63.3749V63.3749Z" fill="#68E1FD"/>
<path d="M159.597 63.3749L112.801 34.8469C112.551 34.7019 112.266 34.6266 111.976 34.629C111.687 34.6313 111.403 34.7111 111.155 34.8601C110.907 35.0091 110.703 35.2219 110.565 35.4764C110.426 35.7308 110.359 36.0176 110.369 36.3069V52.5579C110.367 52.852 110.442 53.1416 110.585 53.3985C110.728 53.6554 110.935 53.8709 111.186 54.0239L157.989 81.9539C158.238 82.0967 158.52 82.1708 158.806 82.1685C159.093 82.1663 159.374 82.0879 159.62 81.9413C159.866 81.7947 160.069 81.5853 160.207 81.3344C160.346 81.0836 160.415 80.8004 160.408 80.5139L160.652 65.3549C160.673 64.5549 160.272 63.8039 159.597 63.3749V63.3749Z" fill="#68E1FD"/>
<path d="M148.392 71.7408C150.071 74.0888 153.023 74.7448 154.979 73.2138C156.934 71.6838 157.159 68.5388 155.48 66.1978C153.802 63.8578 150.849 63.1948 148.894 64.7248C146.938 66.2548 146.732 69.3948 148.392 71.7408V71.7408Z" fill="white"/>
<path d="M143.799 60.4739L124.701 48.9829C124.537 48.9058 124.35 48.8927 124.177 48.9462C124.004 48.9998 123.857 49.116 123.765 49.2723C123.673 49.4285 123.643 49.6134 123.68 49.7908C123.717 49.9681 123.82 50.1251 123.967 50.2309L143.059 61.7229C143.223 61.8001 143.41 61.8132 143.583 61.7597C143.756 61.7061 143.903 61.5899 143.995 61.4336C144.087 61.2774 144.117 61.0925 144.08 60.9151C144.042 60.7378 143.94 60.5808 143.793 60.4749H143.799V60.4739ZM143.008 65.1499L116.692 49.3099C116.528 49.2337 116.341 49.2213 116.169 49.2751C115.996 49.3289 115.85 49.4451 115.758 49.601C115.667 49.7568 115.637 49.9412 115.674 50.1182C115.711 50.2951 115.812 50.4519 115.959 50.5579L142.274 66.3979C142.438 66.4751 142.625 66.4882 142.798 66.4347C142.971 66.3811 143.118 66.2649 143.21 66.1086C143.302 65.9524 143.332 65.7675 143.295 65.5901C143.257 65.4128 143.155 65.2558 143.008 65.1499Z" fill="#F2F2F2"/>
<path d="M98.1796 61.7798C95.1558 64.3818 92.8687 67.7327 91.5476 71.4968C89.2196 77.9268 95.0406 88.4358 95.0406 88.4358L104.098 81.2658" fill="#FF8F6F"/>
<path d="M97.2021 146.803L94.7441 145.446L95.3881 141.935C95.3881 141.935 99.0481 142.282 99.3691 143.581" fill="#003B94"/>
<path d="M98.1026 146.751C98.6556 146.411 99.2346 146.108 99.8076 145.806C101.229 145.028 103.281 144.224 104.156 142.764C104.335 142.469 104.42 142.126 104.399 141.781C104.378 141.437 104.253 141.107 104.04 140.835C102.754 139.279 99.9356 141.838 98.4956 140.115C98.2126 139.774 98.0766 134.365 98.0766 134.365L92.5966 135.845C92.5966 135.845 91.6706 146.713 91.7736 147.382C91.8756 148.05 93.7606 148.668 93.7606 148.668C94.3221 148.549 94.8581 148.331 95.3436 148.025C95.9156 147.607 95.3946 142.507 96.1276 143.221C96.8616 143.935 97.1826 146.726 97.1826 146.726C97.4876 146.772 97.7966 146.78 98.1026 146.751V146.751Z" fill="#F47B56"/>
<path d="M107.667 152.057L105.21 150.719L105.853 147.208C105.853 147.208 109.513 147.555 109.835 148.854" fill="#003B94"/>
<path d="M108.594 152.005C109.147 151.665 109.726 151.362 110.298 151.06C111.72 150.282 113.772 149.478 114.647 148.018C114.826 147.723 114.911 147.38 114.89 147.035C114.87 146.691 114.744 146.36 114.531 146.089C113.244 144.533 110.427 147.092 108.986 145.369C108.703 145.028 108.568 139.619 108.568 139.619L103.088 141.099C103.088 141.099 102.155 152.005 102.258 152.649C102.36 153.292 104.245 153.935 104.245 153.935C104.806 153.816 105.342 153.598 105.828 153.292C106.4 152.874 105.879 147.774 106.612 148.488C107.346 149.202 107.667 151.993 107.667 151.993C107.974 152.035 108.286 152.039 108.594 152.005Z" fill="#F47B56"/>
<path d="M89.8113 116.726L88.1963 138.314C88.1963 138.314 90.7693 141.864 99.3963 139.89L99.4793 125.337L89.8113 116.726ZM99.7753 121.003C99.5883 122.861 99.7753 143.363 99.7753 143.363C99.7753 143.363 102.161 147.825 112.55 143.363L112.402 125.941" fill="#3E2928"/>
<path d="M89.0068 123.857C89.7138 124.347 89.9588 121.832 90.6978 122.263C93.3893 123.825 96.2458 125.085 99.2148 126.018H99.2788C99.3496 125.983 99.4266 125.964 99.5053 125.96C99.5839 125.956 99.6625 125.968 99.7364 125.995C99.8103 126.022 99.878 126.063 99.9355 126.117C99.993 126.171 100.039 126.236 100.071 126.308C101.905 126.855 103.771 127.284 105.661 127.594C108.085 127.98 110.092 126.185 112.581 126.064C112.581 116.533 112.627 89.4068 108.568 83.6188L96.5578 79.5808C96.4998 80.5708 90.7298 87.2588 90.8718 95.4138C91.0318 104.604 89.8358 113.272 89.6298 116.147C89.5978 116.636 89.0318 123.337 89.0068 123.857V123.857Z" fill="#3E2928"/>
<path d="M109.674 72.6608L108.568 83.5938C108.568 83.5938 99.608 83.9538 95.748 81.2908V72.0178" fill="#FF8F6F"/>
<path d="M121.067 65.4648L120.154 66.7118C120.641 65.6971 121.07 64.6558 121.44 63.5928C121.698 62.8668 120.533 62.5768 120.276 63.3038L120.141 63.6768C120.253 63.2908 120.358 62.9028 120.456 62.5128C120.477 62.4356 120.483 62.3549 120.473 62.2754C120.462 62.196 120.436 62.1194 120.396 62.0501C120.355 61.9809 120.302 61.9205 120.238 61.8724C120.173 61.8244 120.1 61.7896 120.023 61.7702C119.945 61.7509 119.864 61.7473 119.785 61.7596C119.706 61.772 119.63 61.8001 119.562 61.8423C119.494 61.8845 119.435 61.9399 119.388 62.0053C119.342 62.0706 119.309 62.1446 119.292 62.2228C119.039 63.2323 118.737 64.2286 118.385 65.2078C118.581 64.3386 118.723 63.4578 118.81 62.5708C118.887 61.8058 117.684 61.8378 117.613 62.5708C117.513 63.5808 117.333 64.5808 117.073 65.5608C117.072 65.2156 117.04 64.8711 116.976 64.5318C116.967 64.4465 116.94 64.364 116.897 64.2899C116.854 64.2157 116.796 64.1516 116.726 64.1018C116.693 63.9668 116.654 63.8334 116.61 63.7018C116.564 63.567 116.473 63.4526 116.351 63.3787C116.229 63.3047 116.086 63.276 115.945 63.2975C115.805 63.3189 115.676 63.3893 115.582 63.4962C115.488 63.603 115.435 63.7396 115.432 63.8818L115.355 68.3838C115.137 68.8508 114.854 69.2838 114.513 69.6708C115.091 70.0708 115.65 70.5008 116.185 70.9568C116.663 71.3598 117.118 71.7898 117.549 72.2428C117.935 71.7628 118.306 71.2738 118.662 70.7768C118.706 70.7392 118.744 70.6958 118.777 70.6478C119.848 69.0625 120.955 67.5015 122.097 65.9658C122.573 65.4388 121.524 64.8538 121.067 65.4648V65.4648Z" fill="#FFB5A9"/>
<path d="M103.988 62.6929C103.988 62.6929 108.221 63.8309 109.938 66.5519C111.014 68.4344 111.962 70.3872 112.775 72.3969L115.901 67.5419C115.901 67.5419 119.696 68.7059 121.201 70.5709C121.201 70.5709 116.699 80.4109 112.775 81.2529C108.851 82.0949 104.683 75.4779 104.683 75.4779C104.683 75.4779 103.821 78.2429 103.988 75.2909" fill="#FF8F6F"/>
<path d="M106.677 73.2078C105.447 72.2072 104.518 70.8848 103.994 69.3878C103.486 67.6578 104.123 66.1398 104.714 64.5318C105.355 62.9382 105.729 61.2499 105.821 59.5348C105.873 57.8508 105.68 56.1648 105.564 54.4868C105.548 54.415 105.548 54.3405 105.564 54.2688C104.998 52.3708 103.84 50.7638 101.556 50.5708C95.6453 50.0688 95.3103 56.6158 95.3563 59.2778C95.4003 61.9408 95.6843 63.7408 93.7223 64.8538C91.7603 65.9658 90.3443 68.8858 92.2163 71.2458C94.0883 73.6058 92.4093 72.7448 91.1613 74.8408C89.9143 76.9378 90.2353 79.5548 92.7953 80.5008C95.3553 81.4458 107.255 79.6708 108.349 78.5708C108.738 78.1277 108.938 77.5511 108.909 76.9628C108.642 75.483 107.85 74.1495 106.677 73.2078Z" fill="#007F68"/>
<path d="M112.492 19.2129C113.494 20.6546 114.073 22.3476 114.164 24.1009C114.276 24.9037 114.081 25.7191 113.617 26.3839C113.42 26.6008 113.156 26.7457 112.867 26.7959C112.578 26.8461 112.281 26.7986 112.022 26.6609C111.697 26.531 111.403 26.3333 111.16 26.0809C110.942 25.8764 110.755 25.6405 110.607 25.3809L110.453 25.0789C110.411 25.1579 110.359 25.2309 110.298 25.2969C110.145 25.4169 109.963 25.4939 109.771 25.5219C109.449 25.5819 109.117 25.5419 108.819 25.4069C108.108 25.0992 107.516 24.5685 107.133 23.8949C106.672 23.1635 106.414 22.3222 106.387 21.4579C106.292 20.7579 106.511 20.0519 106.985 19.5279C107.189 19.3313 107.449 19.2024 107.728 19.1587C108.008 19.1151 108.295 19.1588 108.549 19.2839C108.807 19.3869 109.044 19.5349 109.249 19.7219C109.425 19.8709 109.581 20.0419 109.713 20.2299L109.829 20.4359V19.8629L111.115 20.3649L111.244 23.9789C111.253 24.2379 111.333 24.4889 111.475 24.7059C111.596 24.9149 111.781 25.0789 112.003 25.1759C112.625 25.4199 112.912 24.8839 112.865 23.5669C112.8 22.2634 112.37 21.0044 111.623 19.9339C110.952 18.8447 109.955 17.9945 108.773 17.5039C108.344 17.2861 107.86 17.2021 107.383 17.2627C106.906 17.3233 106.459 17.5258 106.098 17.8439C105.714 18.2298 105.421 18.6972 105.242 19.2114C105.062 19.7257 105.001 20.2737 105.062 20.8149C105.136 22.1937 105.58 23.527 106.349 24.6739C106.961 25.8066 107.925 26.7094 109.095 27.2459C109.503 27.4159 109.94 27.5009 110.382 27.4959C110.669 27.5159 110.957 27.4629 111.218 27.3419L111.475 27.2009L112.254 28.6479L112.125 28.7379C112.003 28.8059 111.876 28.8669 111.745 28.9179C111.54 29.0069 111.324 29.0679 111.102 29.0979C110.818 29.136 110.531 29.136 110.247 29.0979C109.874 29.0533 109.509 28.9602 109.16 28.8209C108.17 28.3951 107.29 27.7487 106.587 26.9309C105.755 26.0108 105.081 24.9588 104.593 23.8179C104.104 22.7287 103.825 21.5574 103.769 20.3649C103.7 19.3625 103.904 18.36 104.361 17.4649C104.74 16.7136 105.395 16.1376 106.188 15.8569C107.019 15.5831 107.923 15.6287 108.722 15.9849C110.283 16.6445 111.6 17.7729 112.492 19.2139V19.2129ZM109.655 23.7859C109.866 23.5159 109.961 23.1739 109.919 22.8339C109.909 22.4146 109.791 22.005 109.578 21.6439C109.403 21.3288 109.13 21.0803 108.799 20.9369C108.672 20.8719 108.529 20.8469 108.388 20.8653C108.247 20.8837 108.115 20.9446 108.009 21.0399C107.898 21.1661 107.815 21.3147 107.766 21.4756C107.717 21.6366 107.703 21.8061 107.725 21.9729C107.74 22.3969 107.866 22.8089 108.092 23.1689C108.277 23.4949 108.564 23.7529 108.909 23.9019C109.156 24.0289 109.457 23.9819 109.655 23.7859V23.7859ZM188.441 88.8479C189.444 90.2885 190.024 91.9816 190.113 93.7349C190.225 94.5375 190.03 95.3529 189.567 96.0179C189.369 96.2341 189.105 96.3786 188.816 96.4287C188.527 96.4788 188.23 96.4318 187.971 96.2949C187.647 96.1632 187.353 95.9657 187.109 95.7149C186.892 95.5093 186.706 95.2736 186.556 95.0149L186.402 94.7129C186.358 94.7909 186.306 94.864 186.247 94.9309C186.095 95.0509 185.913 95.1299 185.72 95.1559C185.401 95.2199 185.07 95.1819 184.774 95.0469C184.062 94.7375 183.471 94.2046 183.089 93.5289C182.623 92.7969 182.363 91.953 182.336 91.0859C182.237 90.3859 182.456 89.6779 182.935 89.1559C183.138 88.9601 183.396 88.8316 183.674 88.788C183.953 88.7443 184.238 88.7876 184.491 88.9119C184.749 89.0139 184.987 89.1619 185.192 89.3489C185.368 89.5009 185.523 89.6739 185.656 89.8639L185.778 90.0689V89.4969L187.064 89.9919L187.193 93.6059C187.204 93.8649 187.284 94.1159 187.424 94.3329C187.545 94.5429 187.73 94.7069 187.952 94.8029C188.595 95.0469 188.859 94.5129 188.82 93.1949C188.755 91.8894 188.325 90.6283 187.579 89.5549C186.908 88.4696 185.914 87.6219 184.736 87.1309C184.308 86.9129 183.824 86.8282 183.347 86.8878C182.87 86.9473 182.422 87.1483 182.06 87.4649C181.678 87.8553 181.388 88.3268 181.213 88.8445C181.039 89.3622 180.983 89.9127 181.05 90.4549C181.122 91.8338 181.566 93.1674 182.336 94.3139C182.972 95.4199 183.947 96.2924 185.116 96.8029C185.523 96.9729 185.96 97.0599 186.402 97.0599C186.689 97.0769 186.976 97.0239 187.238 96.9049L187.495 96.7639L188.274 98.2109L188.144 98.3009C188.023 98.3699 187.896 98.4299 187.765 98.4809C187.559 98.5661 187.343 98.6265 187.122 98.6609C186.836 98.6988 186.546 98.6988 186.26 98.6609C185.889 98.6139 185.526 98.5188 185.18 98.3779C184.19 97.9539 183.31 97.3095 182.607 96.4939C181.774 95.5714 181.1 94.5171 180.612 93.3739C180.124 92.2851 179.844 91.114 179.789 89.9219C179.719 88.9213 179.924 87.9207 180.381 87.0279C180.761 86.2756 181.415 85.6976 182.208 85.4129C183.042 85.1424 183.946 85.1887 184.748 85.5429C186.291 86.2366 187.581 87.3912 188.441 88.8479V88.8479ZM185.604 93.4199C185.817 93.1509 185.914 92.8089 185.874 92.4679C185.863 92.048 185.743 91.638 185.527 91.2779C185.356 90.9627 185.084 90.7139 184.755 90.5709C184.629 90.5048 184.486 90.4787 184.344 90.4961C184.203 90.5134 184.07 90.5733 183.964 90.6679C183.851 90.793 183.767 90.9411 183.717 91.102C183.667 91.263 183.652 91.4328 183.674 91.5999C183.689 92.0219 183.816 92.4329 184.041 92.7899C184.226 93.1179 184.513 93.3779 184.858 93.5299C184.978 93.5925 185.115 93.6155 185.249 93.5957C185.383 93.576 185.507 93.5145 185.604 93.4199" fill="#F47B56"/>
<path style="mix-blend-mode:multiply" opacity="0.25" d="M60.2529 116.269L38.4789 103.883L16.7109 116.295C16.7109 116.295 28.8239 123.857 39.6619 130.211C46.5449 125.349 52.6619 119.787 60.2529 116.269V116.269Z" fill="url(#paint4_linear)"/>
<g filter="url(#filter0_d)">
<path d="M20.9297 81.4708V108.406L41.9137 120.423L65.6077 106.41V79.4758" fill="black"/>
</g>
<path d="M20.9297 81.4708V108.406L41.9137 120.423L65.6077 106.41V79.4758" fill="#FF9271"/>
<path d="M41.9131 93.4888V120.424L65.6071 106.411V79.4758L41.9131 93.4888Z" fill="#DF5C34"/>
<path d="M20.9297 81.4708L45.2767 67.5928L65.6067 79.4758L41.9137 93.4888L20.9297 81.4708Z" fill="#F47B56"/>
<path d="M42.4702 73.7748C44.939 73.6082 47.404 74.1512 49.5742 75.3398C50.8172 76.0708 51.4962 76.8338 51.5922 77.6298C51.6882 78.4248 51.2782 79.1168 50.3112 79.6998C49.8524 79.9833 49.3469 80.183 48.8182 80.2898C48.3842 80.3928 47.9382 80.4388 47.4922 80.4248L47.0052 80.3868C47.0512 80.4958 47.0812 80.6098 47.0952 80.7268C47.0801 81.0036 46.9917 81.2714 46.8392 81.5028C46.5852 81.9328 46.2232 82.2888 45.7892 82.5348C44.7769 83.1363 43.6166 83.4429 42.4392 83.4198C41.2209 83.4528 40.017 83.149 38.9602 82.5418C37.9612 81.9518 37.4492 81.2588 37.4102 80.4638C37.4141 80.0428 37.5362 79.6314 37.7627 79.2765C37.9893 78.9216 38.311 78.6376 38.6912 78.4568C39.0563 78.229 39.4538 78.0581 39.8702 77.9498C40.202 77.854 40.5435 77.796 40.8882 77.7768H41.2412L40.6002 77.3918L42.4002 76.2698L46.5702 78.7258C46.8891 78.8975 47.2456 78.9874 47.6077 78.9874C47.9699 78.9874 48.3264 78.8975 48.6452 78.7258C49.5292 78.1748 49.2132 77.4498 47.6972 76.5518C46.0861 75.6645 44.2546 75.2571 42.4192 75.3778C40.474 75.4017 38.5711 75.9488 36.9102 76.9618C35.3992 77.9068 34.6502 79.0338 34.6622 80.3418C34.6622 81.6248 35.4622 82.7658 37.0192 83.6828C38.7192 84.6328 40.6482 85.0928 42.5922 85.0108C44.5285 85.0427 46.4356 84.5366 48.1012 83.5488C48.6774 83.2069 49.1942 82.7736 49.6312 82.2658C49.9242 81.9558 50.1432 81.5828 50.2722 81.1758L50.3622 80.7718L52.7382 80.9058C52.7422 80.9788 52.7422 81.0518 52.7382 81.1248C52.6952 81.3208 52.6372 81.5138 52.5652 81.7018C52.4622 82.0018 52.3252 82.2918 52.1552 82.5608C51.9112 82.9248 51.6282 83.2608 51.3102 83.5608C50.8902 83.9658 50.4302 84.3228 49.9332 84.6258C48.5032 85.4842 46.9192 86.0549 45.2702 86.3058C43.4732 86.6197 41.6382 86.6521 39.8312 86.4018C38.1886 86.2084 36.6011 85.6897 35.1612 84.8758C33.9992 84.2601 33.0687 83.2834 32.5102 82.0928C32.2819 81.5734 32.1641 81.0122 32.1641 80.4448C32.1641 79.8774 32.2819 79.3162 32.5102 78.7968C33.0636 77.5841 33.9849 76.5764 35.1432 75.9168C37.3501 74.5604 39.8803 73.8207 42.4702 73.7748V73.7748ZM44.8022 80.4058C44.7603 80.1866 44.6655 79.981 44.5261 79.8067C44.3866 79.6325 44.2068 79.4949 44.0022 79.4058C43.4973 79.1085 42.9222 78.9514 42.3362 78.9508C41.792 78.9301 41.2535 79.0681 40.7862 79.3478C40.4022 79.5348 40.1552 79.9208 40.1462 80.3478C40.2042 80.7928 40.4912 81.1748 40.9012 81.3548C41.4173 81.6497 42.004 81.7984 42.5982 81.7848C43.1695 81.7992 43.7333 81.6526 44.2252 81.3618C44.5982 81.1918 44.8352 80.8158 44.8282 80.4058" fill="#3E2928"/>
</g>
<defs>
<filter id="filter0_d" x="-29.0703" y="54.4758" width="144.678" height="140.947" filterUnits="userSpaceOnUse" color-interpolation-filters="sRGB">
<feFlood flood-opacity="0" result="BackgroundImageFix"/>
<feColorMatrix in="SourceAlpha" type="matrix" values="0 0 0 0 0 0 0 0 0 0 0 0 0 0 0 0 0 0 127 0"/>
<feOffset dy="25"/>
<feGaussianBlur stdDeviation="25"/>
<feColorMatrix type="matrix" values="0 0 0 0 0.209139 0 0 0 0 0.0691446 0 0 0 0 0.478091 0 0 0 0.497159 0"/>
<feBlend mode="normal" in2="BackgroundImageFix" result="effect1_dropShadow"/>
<feBlend mode="normal" in="SourceGraphic" in2="effect1_dropShadow" result="shape"/>
</filter>
<linearGradient id="paint0_linear" x1="134.632" y1="101.866" x2="127.637" y2="111.343" gradientUnits="userSpaceOnUse">
<stop stop-color="#78B46A"/>
<stop offset="0.03" stop-color="#7F3500"/>
<stop offset="1" stop-color="white"/>
</linearGradient>
<linearGradient id="paint1_linear" x1="108.742" y1="143.213" x2="94.0606" y2="159.307" gradientUnits="userSpaceOnUse">
<stop stop-color="#78B46A"/>
<stop offset="0.03" stop-color="#7F3500"/>
<stop offset="1" stop-color="white"/>
</linearGradient>
<linearGradient id="paint2_linear" x1="76.8367" y1="75.6808" x2="65.8339" y2="87.7446" gradientUnits="userSpaceOnUse">
<stop stop-color="#78B46A"/>
<stop offset="0.03" stop-color="#7F3500"/>
<stop offset="1" stop-color="white"/>
</linearGradient>
<linearGradient id="paint3_linear" x1="179.577" y1="75.8166" x2="172.978" y2="71.0058" gradientUnits="userSpaceOnUse">
<stop stop-color="white" stop-opacity="0"/>
<stop offset="0.99" stop-color="#DC841E"/>
</linearGradient>
<linearGradient id="paint4_linear" x1="52.4951" y1="111.15" x2="37.6007" y2="127.478" gradientUnits="userSpaceOnUse">
<stop stop-color="#78B46A"/>
<stop offset="0.03" stop-color="#7F3500"/>
<stop offset="1" stop-color="white"/>
</linearGradient>
<clipPath id="clip0">
<rect width="236.846" height="179.566" fill="white"/>
</clipPath>
</defs>
</svg>
